Patient4_TMGait_0pt4_01_left_05_GRF.mot
version=1
nRows=39
nColumns=19
inDegrees=no
endheader
time	F1x	F1y	F1z	M1x	M1y	M1z	F2x	F2y	F2z	M2x	M2y	M2z	EC1x	EC1y	EC1z	EC2x	EC2y	EC2z
5.37	0.99734	6.3122	3.5325	-2.4212	-4.9681	2.6501	-23.4057	752.5304	-52.7674	293.3143	63.3495	791.2345	-0.0592	0.0182	-0.0073	-0.0462	0.0165	0.9585
5.3826	0.72214	4.8924	2.5152	-1.8781	-3.464	2.3778	-20.1399	746.1541	-55.3084	289.8305	64.9143	781.3089	-0.0592	0.0182	-0.0073	-0.0462	0.0165	0.9585
5.3953	0.45246	3.7465	1.6221	-1.4333	-2.172	2.251	-16.8103	737.7279	-56.9227	285.6796	65.3651	769.1463	-0.0592	0.0182	-0.0073	-0.0462	0.0165	0.9585
5.4079	0.20399	2.9388	0.91624	-1.1122	-1.1781	2.2555	-13.5973	728.483	-57.5609	281.3791	64.7108	756.1387	-0.0592	0.0182	-0.0073	-0.0462	0.0165	0.9585
5.4206	0.022824	2.4309	0.41827	-0.90473	-0.48781	2.3217	-10.6045	720.0158	-57.3714	277.5489	63.1643	743.9473	-0.0592	0.0182	-0.0073	-0.0462	0.0165	0.9585
5.4332	-0.12823	2.1808	0.098318	-0.79426	-0.064244	2.4513	-7.8865	713.8534	-56.6167	274.7639	61.0472	734.0978	-0.0592	0.0182	-0.0073	-0.0462	0.0165	0.9585
5.4459	-0.23324	2.095	-0.070098	-0.74863	0.14401	2.572	-5.4294	711.1617	-55.5243	273.4568	58.6262	727.6969	-0.0592	0.0182	-0.0073	-0.0462	0.0165	0.9585
5.4585	-0.33341	2.0847	-0.13113	-0.73454	0.19297	2.6619	-3.1782	712.5941	-54.3041	273.8537	56.1315	725.3334	-0.0592	0.0182	-0.0073	-0.0462	0.0165	0.9585
5.4711	-0.42558	2.0354	-0.10661	-0.71031	0.12453	2.6324	-1.0577	718.1317	-53.08	275.9255	53.6906	726.9099	-0.0592	0.0182	-0.0073	-0.0462	0.0165	0.9585
5.4838	-0.52876	1.8465	-0.029	-0.63699	-0.019182	2.408	1.003	727.1499	-51.9607	279.4061	51.3989	731.7582	-0.0592	0.0182	-0.0073	-0.0462	0.0165	0.9585
5.4964	-0.64442	1.4032	0.084386	-0.47202	-0.21106	1.8856	3.121	738.5365	-50.9983	283.8409	49.272	738.7416	-0.0592	0.0182	-0.0073	-0.0462	0.0165	0.9585
5.5091	-0.76937	0.60554	0.21293	-0.17923	-0.42191	0.96146	5.366	750.8513	-50.2235	288.6469	47.3032	746.4451	-0.0592	0.0182	-0.0073	-0.0462	0.0165	0.9585
5.5217	-0.89557	-0.61052	0.34697	0.26579	-0.6325	-0.43033	7.8023	762.5415	-49.6216	293.1967	45.4445	753.3712	-0.0592	0.0182	-0.0073	-0.0462	0.0165	0.9585
5.5344	-0.95757	-2.2734	0.46144	0.87108	-0.79452	-2.3335	10.4505	772.1534	-49.1791	296.8946	43.666	758.1742	-0.0592	0.0182	-0.0073	-0.0462	0.0165	0.9585
5.547	-0.90963	-4.2762	0.52743	1.599	-0.85588	-4.6172	13.2854	778.43	-48.8858	299.2266	41.9553	759.733	-0.0592	0.0182	-0.0073	-0.0462	0.0165	0.9585
5.5596	-0.63071	-6.375	0.49214	2.357	-0.71711	-7.0231	16.2436	780.5272	-48.7537	299.8412	40.3384	757.3617	-0.0592	0.0182	-0.0073	-0.0462	0.0165	0.9585
5.5723	-0.021693	-8.0842	0.28979	2.9646	-0.26285	-8.9863	19.2443	778.1802	-48.7909	298.6171	38.8497	750.9348	-0.0592	0.0182	-0.0073	-0.0462	0.0165	0.9585
5.5849	1.0746	-8.6253	-0.15865	3.1276	0.65709	-9.6564	22.1982	771.7509	-49.011	295.6843	37.5389	740.9019	-0.0592	0.0182	-0.0073	-0.0462	0.0165	0.9585
5.5976	2.7645	-6.8505	-0.93424	2.4188	2.1786	-7.7436	25.0101	762.1581	-49.4379	291.3935	36.4726	728.2228	-0.0592	0.0182	-0.0073	-0.0462	0.0165	0.9585
5.6102	5.1371	-1.2489	-2.1147	0.27562	4.4162	-1.5681	27.6223	750.6042	-50.09	286.2208	35.7059	714.0778	-0.0592	0.0182	-0.0073	-0.0462	0.0165	0.9585
5.6229	8.1391	9.989	-3.7277	-3.9765	7.3786	10.9192	29.9447	738.243	-50.9509	280.6422	35.269	699.5926	-0.0592	0.0182	-0.0073	-0.0462	0.0165	0.9585
5.6355	11.5128	28.7261	-5.7269	-11.0349	10.9098	31.8559	31.9446	725.8253	-51.9431	274.9954	35.1146	685.471	-0.0592	0.0182	-0.0073	-0.0462	0.0165	0.9585
5.6481	14.6806	56.4692	-7.9105	-21.4571	14.5617	62.9802	33.5839	713.5066	-52.9336	269.3935	35.1386	671.862	-0.0592	0.0182	-0.0073	-0.0462	0.0165	0.9585
5.6608	16.6333	93.7223	-9.8727	-35.4102	17.4933	104.9135	34.834	700.6972	-53.721	263.6703	35.1693	658.1918	-0.0592	0.0182	-0.0073	-0.0462	0.0165	0.9585
5.6734	16.0382	139.1147	-10.9622	-52.35	18.4736	156.1755	35.6327	686.2429	-54.0685	257.4372	35.007	643.3848	-0.0592	0.0182	-0.0073	-0.0462	0.0165	0.9585
5.6861	11.8778	188.8872	-10.3595	-70.8192	16.2001	212.5834	35.9357	668.7625	-53.7315	250.2115	34.4459	626.1454	-0.0592	0.0182	-0.0073	-0.0462	0.0165	0.9585
5.6987	4.8377	237.1699	-7.1187	-88.5789	9.8933	267.4608	35.6929	647.0893	-52.5526	241.5819	33.3691	605.3597	-0.0592	0.0182	-0.0073	-0.0462	0.0165	0.9585
5.7114	-3.0399	278.8857	-1.1912	-103.7489	0.30411	314.829	34.9317	620.7244	-50.5212	231.3681	31.7703	580.5103	-0.0592	0.0182	-0.0073	-0.0462	0.0165	0.9585
5.724	-10.3824	312.6557	6.2138	-115.8761	-10.6872	352.8726	33.7846	589.9402	-47.8047	219.6538	29.7598	551.7589	-0.0592	0.0182	-0.0073	-0.0462	0.0165	0.9585
5.7366	-16.4368	340.2448	14.0855	-125.6843	-21.652	383.4446	32.427	555.4601	-44.6961	206.6793	27.5302	519.6724	-0.0592	0.0182	-0.0073	-0.0462	0.0165	0.9585
5.7493	-20.9491	364.4953	21.3378	-134.3108	-31.2999	409.7626	31.0738	518.1679	-41.4115	192.7436	25.1912	484.9766	-0.0592	0.0182	-0.0073	-0.0462	0.0165	0.9585
5.7619	-23.8641	387.7871	27.3241	-142.7005	-38.8948	434.5419	29.864	478.8814	-38.0176	178.128	22.7408	448.3726	-0.0592	0.0182	-0.0073	-0.0462	0.0165	0.9585
5.7746	-25.2598	411.3613	31.6193	-151.354	-44.0242	459.1775	28.8413	438.2469	-34.4546	163.0593	20.0929	410.431	-0.0592	0.0182	-0.0073	-0.0462	0.0165	0.9585
5.7872	-25.3092	435.5461	34.3249	-160.3944	-46.8789	484.0799	27.9361	396.7844	-30.667	147.7157	17.2074	371.6526	-0.0592	0.0182	-0.0073	-0.0462	0.0165	0.9585
5.7999	-24.2806	460.4233	35.7805	-169.8207	-47.9602	509.3954	26.9744	354.9243	-26.6732	132.2397	14.1443	332.4685	-0.0592	0.0182	-0.0073	-0.0462	0.0165	0.9585
5.8125	-22.4766	486.2313	36.5644	-179.663	-48.0218	535.4914	25.7341	313.0937	-22.5993	116.7724	11.0794	293.3133	-0.0592	0.0182	-0.0073	-0.0462	0.0165	0.9585
5.8251	-20.1313	513.2917	37.1484	-189.9919	-47.676	562.7682	24.017	271.843	-18.6383	101.4987	8.2485	254.7368	-0.0592	0.0182	-0.0073	-0.0462	0.0165	0.9585
5.8378	-17.5554	541.8224	38.0318	-200.8362	-47.5657	591.5228	21.6812	231.8742	-15.0042	86.6657	5.8944	217.41	-0.0592	0.0182	-0.0073	-0.0462	0.0165	0.9585
5.8504	-15.0722	571.7409	39.542	-212.1357	-48.1545	621.6607	18.6939	194.058	-11.8717	72.5913	4.1904	182.1413	-0.0592	0.0182	-0.0073	-0.0462	0.0165	0.9585
